<svg xmlns="http://www.w3.org/2000/svg" viewBox="0 0 900 2609" font-family="Helvetica,Arial,sans-serif">
<rect width="100%" height="100%" fill="white"/>
<polygon points="255.19,255.19 255.19,139.74 760.26,139.74 760.26,745.82 486.08,745.82 486.08,2468.82 139.74,2468.82 139.74,255.19" fill="#f6f6f6" stroke="#333" stroke-width="2"/>
<polygon points="760.26,566.89 760.26,364.86 558.23,364.86 558.23,566.89" fill="#ffb3b3" fill-opacity="0.55" stroke="#e63946" stroke-width="1.5" stroke-dasharray="6,4"/>
<line x1="760.26" y1="364.86" x2="760.26" y2="566.89" stroke="#e63946" stroke-width="5" stroke-linecap="round"/>
<polygon points="139.74,255.19 139.74,607.29 523.60,607.29 523.60,255.19" fill="#f4a261" fill-opacity="0.95" stroke="#264653" stroke-width="1.5"/>
<text x="331.67" y="431.24" font-size="42" text-anchor="middle" dominant-baseline="middle" fill="#1d3557">fridge</text>
<text x="331.67" y="477.72" font-size="36" text-anchor="middle" fill="#45586b">270&#176;</text>
<polygon points="486.08,2468.82 486.08,2180.21 370.63,2180.21 370.63,2468.82" fill="#90be6d" fill-opacity="0.95" stroke="#264653" stroke-width="1.5"/>
<text x="428.35" y="2324.52" font-size="35" text-anchor="middle" dominant-baseline="middle" fill="#1d3557">shelf-1</text>
<text x="428.35" y="2362.62" font-size="29" text-anchor="middle" fill="#45586b">90&#176;</text>
<polygon points="255.19,2468.82 255.19,2180.21 139.74,2180.21 139.74,2468.82" fill="#90be6d" fill-opacity="0.95" stroke="#264653" stroke-width="1.5"/>
<text x="197.47" y="2324.52" font-size="35" text-anchor="middle" dominant-baseline="middle" fill="#1d3557">shelf-2</text>
<text x="197.47" y="2362.62" font-size="29" text-anchor="middle" fill="#45586b">90&#176;</text>
<polygon points="471.65,745.82 760.26,745.82 760.26,630.38 471.65,630.38" fill="#90be6d" fill-opacity="0.95" stroke="#264653" stroke-width="1.5"/>
<text x="615.95" y="688.10" font-size="35" text-anchor="middle" dominant-baseline="middle" fill="#1d3557">shelf-3</text>
<text x="615.95" y="726.20" font-size="29" text-anchor="middle" fill="#45586b">0&#176;</text>
<polygon points="255.19,2180.21 255.19,1891.60 139.74,1891.60 139.74,2180.21" fill="#90be6d" fill-opacity="0.95" stroke="#264653" stroke-width="1.5"/>
<text x="197.47" y="2035.91" font-size="35" text-anchor="middle" dominant-baseline="middle" fill="#1d3557">shelf-4</text>
<text x="197.47" y="2074.01" font-size="29" text-anchor="middle" fill="#45586b">90&#176;</text>
<polygon points="255.19,1891.60 255.19,1602.99 139.74,1602.99 139.74,1891.60" fill="#90be6d" fill-opacity="0.95" stroke="#264653" stroke-width="1.5"/>
<text x="197.47" y="1747.30" font-size="35" text-anchor="middle" dominant-baseline="middle" fill="#1d3557">shelf-5</text>
<text x="197.47" y="1785.40" font-size="29" text-anchor="middle" fill="#45586b">90&#176;</text>
<polygon points="370.63,2468.82 370.63,2295.66 255.19,2295.66 255.19,2468.82" fill="#c8b6ff" fill-opacity="0.95" stroke="#264653" stroke-width="1.5"/>
<text x="312.91" y="2382.24" font-size="21" text-anchor="middle" dominant-baseline="middle" fill="#1d3557">overShelf-1</text>
<text x="312.91" y="2405.10" font-size="18" text-anchor="middle" fill="#45586b">90&#176;</text>
<polygon points="255.19,1602.99 255.19,1429.83 139.74,1429.83 139.74,1602.99" fill="#c8b6ff" fill-opacity="0.95" stroke="#264653" stroke-width="1.5"/>
<text x="197.47" y="1516.41" font-size="21" text-anchor="middle" dominant-baseline="middle" fill="#1d3557">overShelf-2</text>
<text x="197.47" y="1539.27" font-size="18" text-anchor="middle" fill="#45586b">90&#176;</text>
<polygon points="255.19,1429.83 255.19,1256.66 139.74,1256.66 139.74,1429.83" fill="#c8b6ff" fill-opacity="0.95" stroke="#264653" stroke-width="1.5"/>
<text x="197.47" y="1343.25" font-size="21" text-anchor="middle" dominant-baseline="middle" fill="#1d3557">overShelf-3</text>
<text x="197.47" y="1366.10" font-size="18" text-anchor="middle" fill="#45586b">90&#176;</text>
</svg>